<?xml version="1.0" encoding="utf-8"?>
<!-- Generator: Adobe Illustrator 24.3.0, SVG Export Plug-In . SVG Version: 6.00 Build 0)  -->
<svg version="1.1" id="Layer_1" xmlns="http://www.w3.org/2000/svg" xmlns:xlink="http://www.w3.org/1999/xlink" x="0px" y="0px"
	 viewBox="0 0 32 32" style="enable-background:new 0 0 32 32;" xml:space="preserve">
<path d="M31.75,12.25c-0.13,0.63-0.21,1.27-0.39,1.88c-0.5,1.77-1.55,3.21-2.84,4.49c-2.25,2.24-4.65,4.32-7.07,6.37
	c-1.43,1.21-2.87,2.4-4.31,3.6c-0.81,0.67-1.43,0.67-2.25,0c-3.31-2.72-6.6-5.47-9.74-8.4c-1.12-1.05-2.29-2.06-3.15-3.35
	c-2.09-3.14-2.42-6.44-0.46-9.74c2.91-4.86,9.57-5.65,13.63-1.68c0.27,0.26,0.53,0.54,0.82,0.85c0.27-0.26,0.51-0.51,0.75-0.75
	c0.94-0.94,2.03-1.64,3.28-2.1c5.18-1.91,10.93,1.54,11.64,6.99c0.02,0.14,0.05,0.28,0.07,0.42C31.75,11.31,31.75,11.78,31.75,12.25
	z M16.01,25.92c0.09-0.07,0.17-0.12,0.24-0.18c2.21-1.88,4.45-3.74,6.63-5.67c1.47-1.3,2.91-2.64,4.27-4.06
	c1.57-1.65,2.19-3.67,1.62-5.92c-1.09-4.33-6.57-5.88-9.84-2.79c-0.62,0.58-1.21,1.2-1.81,1.8c-0.67,0.67-1.53,0.67-2.2,0
	c-0.57-0.56-1.11-1.14-1.7-1.69c-1.73-1.62-3.75-2.12-6.01-1.43c-3.58,1.09-5.16,5.11-3.4,8.52c0.55,1.07,1.36,1.92,2.24,2.71
	c2.64,2.37,5.31,4.71,7.98,7.06C14.67,24.83,15.35,25.36,16.01,25.92z"/>
</svg>
