<?xml version="1.0" encoding="utf-8"?>
<!-- Generator: Adobe Illustrator 24.3.0, SVG Export Plug-In . SVG Version: 6.00 Build 0)  -->
<svg version="1.1" id="Layer_1" xmlns="http://www.w3.org/2000/svg" xmlns:xlink="http://www.w3.org/1999/xlink" x="0px" y="0px"
	 viewBox="0 0 32 32" style="enable-background:new 0 0 32 32;" xml:space="preserve">
<path d="M0.2,28.3c0.2-1,0.8-1.6,1.5-2.3c3.3-3.2,6.5-6.5,9.8-9.8c0.1-0.1,0.2-0.1,0.3-0.2c-0.1-0.2-0.2-0.2-0.3-0.3
	C8.1,12.3,4.7,8.9,1.3,5.5c-1.1-1.1-1.2-2.8-0.2-4c1-1.2,2.7-1.4,4-0.5c0.2,0.1,0.3,0.2,0.4,0.4c3.4,3.4,6.7,6.7,10.1,10.1
	c0.1,0.1,0.2,0.2,0.3,0.3c0.1-0.1,0.2-0.2,0.3-0.3C19.6,8.1,23,4.8,26.3,1.4c1.7-1.7,4.4-1,5,1.2c0.3,1.1,0.1,2.1-0.7,2.9
	c-3.4,3.4-6.7,6.7-10.1,10.1c-0.1,0.1-0.2,0.2-0.3,0.3c0.1,0.1,0.2,0.2,0.3,0.3c3.4,3.4,6.8,6.8,10.2,10.2c0.6,0.6,1,1.4,1,2.3
	c0,1.6-1.3,2.8-2.8,2.8c-1.1,0-1.9-0.3-2.7-1.1c-3.3-3.3-6.7-6.7-10-10c-0.1-0.1-0.2-0.2-0.3-0.4c-0.1,0.2-0.2,0.3-0.2,0.4
	c-3.4,3.4-6.8,6.8-10.2,10.2c-1,1-2.8,1.2-4.1,0.4c-0.6-0.4-1-1-1.1-1.7c0-0.1,0-0.1-0.1-0.2C0.2,28.9,0.2,28.6,0.2,28.3z"/>
</svg>
