<?xml version="1.0" encoding="utf-8"?>
<!-- Generator: Adobe Illustrator 24.3.0, SVG Export Plug-In . SVG Version: 6.00 Build 0)  -->
<svg version="1.1" id="Layer_1" xmlns="http://www.w3.org/2000/svg" xmlns:xlink="http://www.w3.org/1999/xlink" x="0px" y="0px"
	 viewBox="0 0 32 32" style="enable-background:new 0 0 32 32;" xml:space="preserve">
<path d="M26.4,14.2c-0.4-1.2-1.2-2.1-2.1-2.9c-3-2.6-6-5.3-9-7.9c-1-0.9-2.1-1.8-3.2-2.5c-2.6-1.6-6-0.1-6.6,3
	C5.4,4.7,5.3,5.5,5.3,6.4c0,3.2,0,6.4,0,9.6c0,0,0,0,0,0c0,2.8,0,5.6,0,8.5c0,1,0,2.1,0.1,3.1c0.2,2.8,2.8,4.7,5.4,4.1
	c1-0.2,1.9-0.9,2.7-1.5c2.5-2.2,5.1-4.4,7.6-6.6c1.4-1.2,2.8-2.4,4.1-3.8C26.7,18.2,27,16.3,26.4,14.2z M21.4,17
	c-3.2,2.9-6.5,5.7-9.7,8.6c-0.5,0.4-1,0.9-1.7,1.4c0-7.4,0-14.6,0-21.9c0.2,0.2,0.4,0.3,0.6,0.4c3.5,3.1,7.1,6.2,10.6,9.3
	c0.1,0.1,0.2,0.2,0.3,0.3C22.3,15.8,22.3,16.2,21.4,17z"/>
</svg>
