<?xml version="1.0" encoding="utf-8"?>
<!-- Generator: Adobe Illustrator 24.3.0, SVG Export Plug-In . SVG Version: 6.00 Build 0)  -->
<svg version="1.1" id="Layer_1" xmlns="http://www.w3.org/2000/svg" xmlns:xlink="http://www.w3.org/1999/xlink" x="0px" y="0px"
	 viewBox="0 0 32 32" style="enable-background:new 0 0 32 32;" xml:space="preserve">
<g>
	<path d="M31.72,8.31c-0.16-0.85-0.77-1.44-1.64-1.6c-0.74-0.14-1.54,0.23-1.95,0.91c-0.44,0.71-0.4,1.55,0.13,2.23
		c0.14,0.18,0.15,0.31,0.04,0.49c-0.43,0.72-0.8,1.48-1.28,2.16c-0.94,1.33-2.11,2.4-3.66,2.99c-1.74,0.67-3.46,0.22-4.57-1.21
		c-0.87-1.11-1.19-2.42-1.3-3.8c-0.02-0.24,0.04-0.41,0.23-0.59c0.86-0.79,1.03-2.1,0.42-3.1c-0.62-1.02-1.86-1.48-2.97-1.08
		c-0.9,0.33-1.47,0.97-1.64,1.91c-0.18,0.96,0.13,1.78,0.88,2.43c0.1,0.09,0.22,0.24,0.22,0.35c-0.05,1.33-0.36,2.58-1.13,3.68
		c-0.71,1.01-1.65,1.62-2.91,1.69c-1.1,0.06-2.08-0.29-2.98-0.87c-1.81-1.17-2.99-2.85-3.85-4.78c-0.04-0.09,0-0.25,0.06-0.35
		C4.05,9.37,4.19,8.96,4.15,8.5C4.06,7.51,3.3,6.77,2.32,6.69C1.41,6.61,0.54,7.26,0.31,8.17c-0.24,0.94,0.23,1.87,1.13,2.29
		c0.13,0.06,0.26,0.2,0.3,0.33c0.97,2.86,1.93,5.72,2.89,8.58c0.37,1.1,0.74,2.2,1.12,3.31c0.15,0,0.28,0,0.41,0
		c6.54,0,13.09,0,19.63,0.01c0.35,0,0.5-0.09,0.61-0.43c1.27-3.82,2.56-7.63,3.84-11.45c0.06-0.19,0.16-0.3,0.35-0.38
		C31.41,10.06,31.88,9.16,31.72,8.31z"/>
	<path d="M3.89,26.44c8.09,0,16.15,0,24.22,0c0-0.93,0-1.84,0-2.77c-8.08,0-16.14,0-24.22,0C3.89,24.6,3.89,25.5,3.89,26.44z"/>
	<path d="M7.87,9.98c0.18,0.12,0.24,0.24,0.23,0.44c-0.02,0.99-0.24,1.94-0.66,2.83c-0.06,0.13-0.12,0.24,0.04,0.37
		c0.67,0.53,1.4,0.96,2.25,1.13c1.15,0.24,2.31-0.23,2.89-1.17c-0.15-0.13-0.29-0.26-0.42-0.38c-0.89-0.82-1.71-1.7-2.22-2.82
		C9.86,10.13,9.86,10,10.08,9.8c0.79-0.7,0.78-1.93,0.01-2.63c-0.77-0.7-1.97-0.62-2.61,0.18C6.8,8.18,6.98,9.39,7.87,9.98z"/>
	<path d="M21.46,14.78c1.26,0.12,2.27-0.45,3.25-1.2c-0.52-1.02-0.79-2.08-0.81-3.19c0-0.18,0.04-0.29,0.21-0.39
		c0.7-0.45,0.99-1.28,0.74-2.05c-0.24-0.73-0.89-1.23-1.66-1.26c-0.73-0.03-1.44,0.44-1.72,1.13c-0.28,0.69-0.12,1.5,0.46,1.99
		c0.21,0.18,0.24,0.33,0.11,0.54c-0.34,0.54-0.64,1.12-1.04,1.61c-0.46,0.56-1.01,1.04-1.52,1.55
		C19.92,14.25,20.63,14.7,21.46,14.78z"/>
</g>
</svg>
