<?xml version="1.0" encoding="utf-8"?>
<!-- Generator: Adobe Illustrator 24.3.0, SVG Export Plug-In . SVG Version: 6.00 Build 0)  -->
<svg version="1.1" id="Layer_1" xmlns="http://www.w3.org/2000/svg" xmlns:xlink="http://www.w3.org/1999/xlink" x="0px" y="0px"
	 viewBox="0 0 32 32" style="enable-background:new 0 0 32 32;" xml:space="preserve">
<g>
	<path d="M28.8,6.8c0-1.5-1-2.6-2.6-2.6c-1.7,0-3.3,0-5,0c-0.1,0-0.2,0-0.3,0c0-0.4,0-0.7,0-1c0-1.3-0.9-2.4-2.1-2.8
		c-0.1,0-0.2-0.1-0.4-0.1c-1.6,0-3.2,0-4.8,0c0,0-0.1,0-0.1,0.1c-1.5,0.3-2.4,1.5-2.4,3c0,0.3,0,0.6,0,0.9c-0.1,0-0.3,0-0.4,0
		c-1.7,0-3.4,0-5.1,0c-1.3,0-2.4,1.1-2.4,2.3c0,1.2,0,2.4,0,3.6c0,0.6,0.4,1,1,1c0.2,0,0.3,0,0.5,0c0,0.1,0,0.1,0,0.1
		c0.1,2.2,0.2,4.3,0.3,6.5c0.2,3.2,0.3,6.4,0.5,9.7c0,0.6,0,1.3,0.1,1.9c0.2,1.5,1.5,2.4,3,2.4c4.3,0,8.6,0,12.9,0
		c0.7,0,1.4,0,2.1,0c1.5,0,2.7-1.2,2.8-2.7c0.1-1.8,0.2-3.5,0.3-5.3c0.2-3.3,0.3-6.6,0.5-9.8c0-0.9,0.1-1.9,0.1-2.9
		c0.1,0,0.3,0,0.4,0c0.8,0,1.1-0.4,1.1-1.1C28.8,8.9,28.8,7.8,28.8,6.8z M13.1,3c0-0.5,0.5-0.8,0.9-0.8c1.3,0,2.7,0,4,0
		c0.5,0,0.9,0.4,0.9,0.9c0,0.3,0,0.7,0,1c-2,0-3.9,0-5.9,0C13.1,3.8,13,3.4,13.1,3z M25.2,13.2c-0.1,2.4-0.2,4.8-0.3,7.2
		c-0.1,2.8-0.3,5.5-0.4,8.3c0,0.8-0.4,1.1-1.2,1.1c-4.8,0-9.7,0-14.5,0c-0.8,0-1.1-0.3-1.2-1.1c-0.1-2.3-0.2-4.6-0.3-6.9
		c-0.2-3.3-0.3-6.6-0.5-9.9c0-0.3,0-0.5,0-0.8c6.2,0,12.4,0,18.6,0C25.3,11.8,25.2,12.5,25.2,13.2z M26.8,9.1c-7.2,0-14.4,0-21.6,0
		c0-0.1,0-0.1,0-0.2c0-0.7,0-1.5,0-2.2c0-0.4,0.2-0.5,0.6-0.6c0.1,0,0.1,0,0.2,0c6.7,0,13.4,0,20.2,0c0.6,0,0.7,0.1,0.7,0.8
		C26.8,7.6,26.8,8.3,26.8,9.1z"/>
	<path d="M10.7,27.7c0.7,0.2,1.3-0.2,1.3-1c0-2.1,0-4.2,0-6.3c0-2.1,0-4.2,0-6.3c0-0.5-0.2-0.9-0.6-1c-0.7-0.3-1.3,0.2-1.3,1
		c0,3.8,0,7.6,0,11.3c0,0.5,0,0.9,0,1.4C10.1,27.3,10.4,27.6,10.7,27.7z"/>
	<path d="M15,26.8c0,0.5,0.2,0.8,0.6,1c0.7,0.3,1.3-0.2,1.3-1c0-2.1,0-4.2,0-6.3c0-0.2,0-0.4,0-0.6c0-1.9,0-3.8,0-5.7
		c0-0.5-0.2-0.8-0.6-1c-0.7-0.3-1.3,0.2-1.3,1c0,3.4,0,6.8,0,10.3C15,25.2,15,26,15,26.8z"/>
	<path d="M20.3,27.5c0.3,0.3,0.7,0.4,1.1,0.2c0.4-0.2,0.6-0.5,0.6-1c0-2.1,0-4.2,0-6.3c0-2.1,0-4.2,0-6.3c0-0.5-0.2-0.8-0.6-1
		c-0.7-0.3-1.3,0.2-1.4,1c0,2.5,0,5,0,7.5c0,1.7,0,3.4,0,5.1C19.9,27,20,27.3,20.3,27.5z"/>
</g>
</svg>
