<?xml version="1.0" encoding="utf-8"?>
<!-- Generator: Adobe Illustrator 24.3.0, SVG Export Plug-In . SVG Version: 6.00 Build 0)  -->
<svg version="1.1" id="Layer_1" xmlns="http://www.w3.org/2000/svg" xmlns:xlink="http://www.w3.org/1999/xlink" x="0px" y="0px"
	 viewBox="0 0 32 32" style="enable-background:new 0 0 32 32;" xml:space="preserve">
<g>
	<path d="M0.25,2.83C0.5,2.3,0.92,2.13,1.49,2.15C2.84,2.17,4.2,2.15,5.55,2.15c0.64,0,0.92,0.22,1.1,0.84
		C6.93,3.94,7.2,4.89,7.47,5.85c0.14,0,0.27,0,0.41,0c7.57,0,15.14,0,22.71,0c0.15,0,0.31-0.01,0.46,0.03
		c0.57,0.13,0.83,0.65,0.64,1.31c-0.64,2.23-1.28,4.47-1.92,6.7c-0.56,1.96-1.12,3.92-1.68,5.88c-0.19,0.66-0.45,0.86-1.15,0.86
		c-5.16,0-10.32,0-15.48-0.01c-0.33,0-0.48,0.1-0.62,0.39c-0.37,0.81,0.02,1.47,0.91,1.47c5.07,0,10.14,0,15.2,0
		c0.13,0,0.27,0,0.4,0.03c0.46,0.1,0.76,0.52,0.72,0.97c-0.04,0.48-0.43,0.84-0.93,0.85c-0.94,0.01-1.89,0-2.83,0
		c-0.11,0-0.23,0-0.33,0c0.33,0.15,0.69,0.26,0.99,0.46c0.3,0.21,0.59,0.49,0.8,0.79c0.2,0.3,0.34,0.66,0.41,1.01
		c0.06,0.36,0.06,0.76-0.01,1.12c-0.27,1.3-1.49,2.21-2.84,2.14c-1.32-0.06-2.41-1.09-2.6-2.45c-0.19-1.38,0.67-2.56,2.3-3.07
		c-2.8,0-5.57,0-8.33,0c0.74,0.19,1.36,0.57,1.79,1.21c0.43,0.64,0.57,1.35,0.42,2.11c-0.25,1.29-1.44,2.23-2.78,2.2
		c-1.36-0.03-2.47-1.03-2.68-2.42c-0.21-1.38,0.64-2.55,2.32-3.11c-0.71,0-1.35,0-2,0c-2.23,0-3.55-2.11-2.54-4.1
		c0.21-0.42,0.26-0.78,0.12-1.24C7.89,14.08,6.5,9.17,5.1,4.27C5.08,4.19,5.05,4.11,5.02,4c-0.14,0-0.3,0-0.45,0
		C3.54,4,2.52,3.98,1.49,4.01C0.92,4.03,0.5,3.86,0.25,3.32C0.25,3.16,0.25,3,0.25,2.83z M11.16,18.76c5.11,0,10.19,0,15.3,0
		c1.05-3.68,2.1-7.36,3.16-11.06c-7.21,0-14.4,0-21.61,0C9.06,11.4,10.11,15.08,11.16,18.76z M15.08,27.1
		c0.01-0.5-0.41-0.92-0.9-0.93c-0.5-0.01-0.93,0.4-0.94,0.9c-0.01,0.51,0.41,0.95,0.92,0.95C14.66,28.01,15.08,27.59,15.08,27.1z
		 M23.46,28.01c0.5,0,0.92-0.42,0.92-0.92c0-0.51-0.43-0.94-0.94-0.93c-0.5,0.01-0.91,0.43-0.9,0.93
		C22.54,27.59,22.96,28.01,23.46,28.01z"/>
</g>
</svg>
