<?xml version="1.0" encoding="utf-8"?>
<!-- Generator: Adobe Illustrator 24.3.0, SVG Export Plug-In . SVG Version: 6.00 Build 0)  -->
<svg version="1.1" id="Layer_1" xmlns="http://www.w3.org/2000/svg" xmlns:xlink="http://www.w3.org/1999/xlink" x="0px" y="0px"
	 viewBox="0 0 32 32" style="enable-background:new 0 0 32 32;" xml:space="preserve">
<g>
	<path d="M22.23,24.13c-6.19,4.93-14.45,3.52-18.9-1.84c-4.4-5.31-4.04-13.16,0.85-18.07c4.88-4.89,12.61-5.28,18.04-0.88
		c5.39,4.37,6.85,12.73,1.87,18.93c0.08,0.08,0.15,0.17,0.23,0.25c2.3,2.3,4.61,4.61,6.91,6.91c0.37,0.37,0.59,0.79,0.48,1.32
		c-0.1,0.45-0.35,0.8-0.8,0.92c-0.53,0.14-1.05,0.09-1.47-0.32c-0.7-0.69-1.4-1.39-2.09-2.09c-1.62-1.62-3.24-3.24-4.86-4.86
		C22.41,24.3,22.32,24.22,22.23,24.13z M2.88,13.71c0.04,5.99,4.79,10.8,10.82,10.81c5.96,0.02,10.78-4.83,10.8-10.79
		c0.02-5.95-4.86-10.83-10.81-10.81C7.72,2.94,2.9,7.76,2.88,13.71z"/>
	<path d="M15,12.41c1.05,0,2.04,0,3.04,0c0.66,0,1.15,0.31,1.35,0.84c0.33,0.86-0.28,1.76-1.22,1.78c-0.93,0.02-1.86,0-2.8,0.01
		c-0.11,0-0.23,0-0.37,0c0,0.47,0,0.91,0,1.35c-0.01,0.66,0.01,1.33-0.03,1.99c-0.04,0.66-0.64,1.15-1.29,1.14
		c-0.67-0.01-1.26-0.53-1.28-1.2c-0.03-0.95-0.01-1.91-0.02-2.86c0-0.13,0-0.25,0-0.42c-0.14,0-0.25,0-0.37,0c-0.89,0-1.78,0-2.67,0
		c-0.85,0-1.44-0.54-1.45-1.3c-0.01-0.77,0.59-1.32,1.46-1.33c0.88,0,1.76,0,2.64,0c0.12,0,0.23,0,0.39,0c0-0.14,0-0.26,0-0.37
		c0-0.96-0.01-1.93,0.01-2.89c0.01-0.59,0.48-1.09,1.04-1.18c0.61-0.1,1.2,0.18,1.43,0.73c0.09,0.23,0.12,0.5,0.13,0.75
		C15.01,10.3,15,11.16,15,12.01C15,12.13,15,12.25,15,12.41z"/>
</g>
</svg>
