<?xml version="1.0" encoding="utf-8"?>
<!-- Generator: Adobe Illustrator 24.3.0, SVG Export Plug-In . SVG Version: 6.00 Build 0)  -->
<svg version="1.1" id="Layer_1" xmlns="http://www.w3.org/2000/svg" xmlns:xlink="http://www.w3.org/1999/xlink" x="0px" y="0px"
	 viewBox="0 0 32 32" style="enable-background:new 0 0 32 32;" xml:space="preserve">
<path d="M12.12,0.25c0.55,0,1.11,0,1.66,0c0.08,0.02,0.16,0.04,0.23,0.06c0.7,0.12,1.4,0.19,2.08,0.36
	c7.88,2.02,11.83,10.94,8.03,18.13c-0.35,0.66-0.77,1.28-1.2,1.97c0.07,0.05,0.17,0.11,0.26,0.2c2.56,2.56,5.12,5.12,7.68,7.67
	c0.36,0.36,0.7,0.71,0.87,1.2c0,0.21,0,0.41,0,0.62c-0.14,0.38-0.3,0.73-0.64,0.98c-0.67,0.49-1.49,0.4-2.14-0.25
	c-2.68-2.67-5.35-5.35-8.02-8.03c-0.08-0.08-0.12-0.19-0.18-0.29c-0.19,0.14-0.3,0.22-0.4,0.3c-3.41,2.38-7.13,3.06-11.1,1.86
	c-6.3-1.91-9.97-8.06-8.77-14.53c0.91-4.9,4.85-8.94,9.73-9.95C10.84,0.42,11.48,0.35,12.12,0.25z M22.45,12.94
	c0.02-5.25-4.26-9.53-9.51-9.54C7.69,3.39,3.4,7.66,3.38,12.91c-0.02,5.23,4.26,9.52,9.52,9.55C18.14,22.47,22.43,18.2,22.45,12.94z
	"/>
</svg>
