<?xml version="1.0" encoding="utf-8"?>
<!-- Generator: Adobe Illustrator 24.3.0, SVG Export Plug-In . SVG Version: 6.00 Build 0)  -->
<svg version="1.1" id="Layer_1" xmlns="http://www.w3.org/2000/svg" xmlns:xlink="http://www.w3.org/1999/xlink" x="0px" y="0px"
	 viewBox="0 0 32 32" style="enable-background:new 0 0 32 32;" xml:space="preserve">
<path d="M8.9,16c-0.7-0.8-1.3-1.6-2-2.4c-2.1-2.7-4.2-5.3-6.4-8C0.4,5.3,0.2,4.9,0.3,4.5c0.2-0.7,0.9-1.1,1.6-0.8
	C3.2,4.3,4.6,4.8,6,5.3c8.3,3.2,16.6,6.4,24.9,9.6c0.6,0.2,0.9,0.6,0.9,1.1c0,0.5-0.3,0.9-0.9,1.1c-9.7,3.7-19.3,7.4-29,11.1
	c-0.6,0.2-1,0.1-1.4-0.2c-0.4-0.4-0.4-1,0-1.5c1.2-1.5,2.4-3,3.6-4.5c1.5-1.9,3-3.8,4.6-5.7C8.8,16.2,8.8,16.1,8.9,16z"/>
</svg>
