<?xml version="1.0" encoding="utf-8"?>
<!-- Generator: Adobe Illustrator 24.3.0, SVG Export Plug-In . SVG Version: 6.00 Build 0)  -->
<svg version="1.1" id="Layer_1" xmlns="http://www.w3.org/2000/svg" xmlns:xlink="http://www.w3.org/1999/xlink" x="0px" y="0px"
	 viewBox="0 0 32 32" style="enable-background:new 0 0 32 32;" xml:space="preserve">
<style type="text/css">
	.st0{fill:#FFFFFF;}
</style>
<path d="M31.75,31.75c-0.81,0-1.62,0-2.45,0c-0.1-4.19-1.72-7.65-4.94-10.3c-2.6-2.14-5.62-3.11-8.98-2.97
	c-2.28,0.09-4.41,0.75-6.35,1.97c-1.95,1.22-3.5,2.83-4.63,4.83c-1.12,1.99-1.67,4.15-1.69,6.45c-0.82,0-1.62,0-2.46,0
	c0.04-3.35,0.97-6.39,2.91-9.1c1.94-2.71,4.49-4.62,7.66-5.77c-0.09-0.08-0.15-0.13-0.21-0.18c-3.07-2.29-4.42-6.04-3.37-9.74
	c0.97-3.4,3.25-5.54,6.66-6.44c0.48-0.13,0.99-0.17,1.48-0.26c0.41,0,0.82,0,1.23,0c0.49,0.08,1,0.13,1.48,0.26
	c3.42,0.91,5.72,3.04,6.66,6.45c0.97,3.56-0.02,6.65-2.7,9.19c-0.26,0.25-0.56,0.46-0.86,0.71c0.09,0.04,0.15,0.07,0.22,0.1
	c2.13,0.78,4.01,1.96,5.62,3.55c2.39,2.36,3.9,5.19,4.48,8.5c0.11,0.6,0.17,1.21,0.25,1.82C31.75,31.13,31.75,31.44,31.75,31.75z
	 M16,2.71c-3.65,0-6.63,2.98-6.64,6.63C9.34,13,12.34,16,16,16c3.65,0,6.63-2.98,6.64-6.63C22.66,5.72,19.66,2.71,16,2.71z"/>
<path class="st0" d="M501.29,173.02c-1.05-7.87-1.83-15.78-3.2-23.6c-7.53-43-27.13-79.72-58.15-110.32
	c-20.93-20.64-45.25-36.04-72.91-46.12c-0.84-0.31-1.64-0.73-2.82-1.26c3.93-3.22,7.77-6.01,11.19-9.25
	c34.82-32.95,47.69-73.04,35.04-119.29c-12.09-44.22-42.05-71.89-86.39-83.66c-6.25-1.66-12.79-2.25-19.19-3.33
	c65.47,0,130.94,0,196.42,0C501.29-91.53,501.29,40.75,501.29,173.02z"/>
</svg>
