<?xml version="1.0" encoding="utf-8"?>
<!-- Generator: Adobe Illustrator 24.3.0, SVG Export Plug-In . SVG Version: 6.00 Build 0)  -->
<svg version="1.1" id="Layer_1" xmlns="http://www.w3.org/2000/svg" xmlns:xlink="http://www.w3.org/1999/xlink" x="0px" y="0px"
	 viewBox="0 0 32 32" style="enable-background:new 0 0 32 32;" xml:space="preserve">
<style type="text/css">
	.st0{fill:none;}
</style>
<g>
	<path class="st0" d="M13,25c1,0.8,2,1.6,3,2.4c0.7,0.5,1.6,0.3,1.9-0.4c0.1-0.2,0.1-0.5,0.1-0.7c0-3.4,0-6.8,0-10.3
		c0-0.1,0-0.3,0-0.4l-7.4,7.4C11.4,23.7,12.2,24.4,13,25z"/>
	<path class="st0" d="M4.6,10.8c-1,0-1.9,0.9-1.9,1.9c0,2.2,0,4.4,0,6.6c0,0.9,0.7,1.8,1.6,1.9c0.8,0.1,1.6,0,2.4,0
		c0-3.5,0-7,0-10.5C6,10.8,5.3,10.7,4.6,10.8z"/>
	<path class="st0" d="M17.3,4.4c-0.5-0.2-1-0.1-1.4,0.2c-2.2,1.8-4.4,3.5-6.6,5.3c-0.2,0.1-0.3,0.3-0.3,0.5c0,3.6,0,7.2,0,10.8
		l8.9-8.9c0-2.2,0-4.5,0-6.7C18,5.1,17.8,4.7,17.3,4.4z"/>
	<path d="M9.1,10.5c0-0.2,0.1-0.4,0.3-0.5c2.2-1.8,4.4-3.5,6.6-5.3c0.4-0.3,0.9-0.5,1.4-0.2C17.8,4.7,18,5.1,18,5.7
		c0,2.2,0,4.5,0,6.7l2.4-2.4c0-1.4,0-2.8,0-4.2c0-1.2-0.4-2.2-1.3-3c-1.3-1.1-3.2-1.1-4.6,0c-2.2,1.8-4.5,3.6-6.7,5.3
		C7.6,8.3,7.4,8.3,7,8.3c-0.8,0-1.5,0-2.3,0c-2.6,0-4.5,1.9-4.5,4.5c0,2.1,0,4.2,0,6.2c0,2.6,1.9,4.5,4.5,4.5c0.6,0,1.3,0,1.9,0
		l2.4-2.4C9.1,17.6,9.1,14,9.1,10.5z M6.7,21.2c-0.8,0-1.6,0.1-2.4,0c-0.9-0.1-1.6-1-1.6-1.9c0-2.2,0-4.4,0-6.6c0-1,0.9-1.9,1.9-1.9
		c0.7,0,1.4,0,2.1,0C6.7,14.3,6.7,17.7,6.7,21.2z"/>
	<path d="M18,15.6c0,0.1,0,0.3,0,0.4c0,3.4,0,6.8,0,10.3c0,0.2,0,0.5-0.1,0.7c-0.3,0.8-1.2,1-1.9,0.4c-1-0.8-2-1.6-3-2.4
		c-0.8-0.7-1.6-1.3-2.4-2l-1.7,1.7c1.9,1.5,3.7,3,5.6,4.5c1.1,0.9,2.3,1.1,3.6,0.6c1.5-0.5,2.3-1.9,2.3-3.6c0-3.4,0-6.9,0-10.3
		c0-0.9,0-1.9,0-2.8L18,15.6z"/>
	<path d="M30,9.6c-0.4-0.7-1-1.4-1.5-2c-0.3-0.4-0.8-0.4-1.3-0.2c-0.5,0.2-0.7,0.7-0.7,1.2c0.1,0.3,0.2,0.6,0.4,0.8
		c1.5,1.8,2.3,3.9,2.4,6.3c0.1,2.6-0.8,4.9-2.5,6.9c-0.5,0.6-0.5,1.3,0,1.8c0.6,0.5,1.3,0.4,1.8-0.2c2-2.4,3.1-5.1,3.1-7.8
		C31.7,13.7,31.2,11.6,30,9.6z"/>
	<path d="M26.8,14.9C26.6,13.4,26,12,25,10.9c-0.4-0.4-0.8-0.5-1.3-0.3c-0.5,0.2-0.8,0.5-0.8,1c0,0.4,0.1,0.7,0.4,1
		c0.8,0.9,1.2,1.9,1.3,3.1c0.1,1.5-0.4,2.8-1.4,3.9c-0.3,0.3-0.5,0.7-0.4,1.1c0.1,0.5,0.4,0.8,0.8,0.9c0.5,0.2,0.9,0,1.3-0.4
		c1.4-1.5,2.1-3.2,2.1-5.4C26.9,15.6,26.9,15.2,26.8,14.9z"/>
	<path d="M18,15.6l2.4-2.4l9.8-9.8c0.5-0.5,0.5-1.2,0-1.6c-0.5-0.5-1.2-0.5-1.6,0l-8.1,8.1L18,12.3l-8.9,8.9l-2.4,2.4l-4.9,4.9
		c-0.5,0.5-0.5,1.2,0,1.6c0.5,0.5,1.2,0.5,1.6,0l5.4-5.4l1.7-1.7L18,15.6z"/>
</g>
</svg>
