<?xml version="1.0" encoding="utf-8"?>
<!-- Generator: Adobe Illustrator 24.3.0, SVG Export Plug-In . SVG Version: 6.00 Build 0)  -->
<svg version="1.1" id="Layer_1" xmlns="http://www.w3.org/2000/svg" xmlns:xlink="http://www.w3.org/1999/xlink" x="0px" y="0px"
	 viewBox="0 0 32 32" style="enable-background:new 0 0 32 32;" xml:space="preserve">
<g>
	<path d="M14.5,2.7c-2.2,1.8-4.5,3.6-6.7,5.3C7.6,8.3,7.4,8.3,7,8.3c-0.8,0-1.5,0-2.3,0c-2.6,0-4.5,1.9-4.5,4.5c0,2.1,0,4.2,0,6.2
		c0,2.6,1.9,4.5,4.5,4.5c0.7,0,1.5,0,2.2,0c0.3,0,0.6,0.1,0.9,0.3c2.2,1.8,4.4,3.5,6.6,5.3c1.1,0.9,2.3,1.1,3.6,0.6
		c1.5-0.5,2.3-1.9,2.3-3.6c0-3.4,0-6.9,0-10.3c0-3.4,0-6.9,0-10.3c0-1.2-0.4-2.2-1.3-3C17.8,1.6,15.9,1.6,14.5,2.7z M6.7,21.2
		c-0.8,0-1.6,0.1-2.4,0c-0.9-0.1-1.6-1-1.6-1.9c0-2.2,0-4.4,0-6.6c0-1,0.9-1.9,1.9-1.9c0.7,0,1.4,0,2.1,0
		C6.7,14.3,6.7,17.7,6.7,21.2z M18,16c0,3.4,0,6.8,0,10.3c0,0.2,0,0.5-0.1,0.7c-0.3,0.8-1.2,1-1.9,0.4c-1-0.8-2-1.6-3-2.4
		c-1.2-1-2.4-2-3.7-2.9c-0.2-0.1-0.3-0.3-0.3-0.5c0-3.7,0-7.4,0-11.1c0-0.2,0.1-0.4,0.3-0.5c2.2-1.8,4.4-3.5,6.6-5.3
		c0.4-0.3,0.9-0.5,1.4-0.2C17.8,4.7,18,5.1,18,5.7C18,9.1,18,12.6,18,16z"/>
	<path d="M30,9.6c-0.4-0.7-1-1.4-1.5-2c-0.3-0.4-0.8-0.4-1.3-0.2c-0.5,0.2-0.7,0.7-0.7,1.2c0.1,0.3,0.2,0.6,0.4,0.8
		c1.5,1.8,2.3,3.9,2.4,6.3c0.1,2.6-0.8,4.9-2.5,6.9c-0.5,0.6-0.5,1.3,0,1.8c0.6,0.5,1.3,0.4,1.8-0.2c2-2.4,3.1-5.1,3.1-7.8
		C31.7,13.7,31.2,11.6,30,9.6z"/>
	<path d="M26.8,14.9C26.6,13.4,26,12,25,10.9c-0.4-0.4-0.8-0.5-1.3-0.3c-0.5,0.2-0.8,0.5-0.8,1c0,0.4,0.1,0.7,0.4,1
		c0.8,0.9,1.2,1.9,1.3,3.1c0.1,1.5-0.4,2.8-1.4,3.9c-0.3,0.3-0.5,0.7-0.4,1.1c0.1,0.5,0.4,0.8,0.8,0.9c0.5,0.2,0.9,0,1.3-0.4
		c1.4-1.5,2.1-3.2,2.1-5.4C26.9,15.6,26.9,15.2,26.8,14.9z"/>
</g>
</svg>
