<?xml version="1.0" encoding="utf-8"?>
<!-- Generator: Adobe Illustrator 24.3.0, SVG Export Plug-In . SVG Version: 6.00 Build 0)  -->
<svg version="1.1" id="Layer_1" xmlns="http://www.w3.org/2000/svg" xmlns:xlink="http://www.w3.org/1999/xlink" x="0px" y="0px"
	 viewBox="0 0 32 32" style="enable-background:new 0 0 32 32;" xml:space="preserve">
<g>
	<path d="M26.7,28.9c-0.1-0.2-0.2-0.2-0.3-0.3c-2.6-2.6-5.1-5.1-7.7-7.7c-0.8-0.8-0.5-2.2,0.6-2.5c0.6-0.2,1.1,0,1.5,0.5
		c1.6,1.6,3.2,3.2,4.8,4.8c1,1,2,2,3,2.9c0.1,0.1,0.1,0.1,0.3,0.2c0-0.2,0-0.3,0-0.4c0-1.1,0-2.1,0-3.2c0-0.7,0.4-1.2,1-1.4
		c0.6-0.2,1.3,0,1.6,0.5c0.2,0.2,0.3,0.6,0.3,0.8c0,2.4,0,4.7,0,7.1c0,0.8-0.7,1.5-1.5,1.5c-2.4,0-4.8,0-7.3,0
		c-0.8,0-1.4-0.7-1.4-1.4c0-0.8,0.6-1.4,1.4-1.4c1.1,0,2.2,0,3.2,0C26.4,28.9,26.5,28.9,26.7,28.9z"/>
	<path d="M26.8,3.1c-1.1,0-2.1,0-3.2,0c-0.2,0-0.3,0-0.5,0c-0.8-0.1-1.4-0.7-1.3-1.5c0-0.8,0.6-1.4,1.4-1.4c1.3,0,2.6,0,3.9,0
		c1,0,2.1,0,3.1,0c1,0,1.6,0.6,1.6,1.6c0,2.3,0,4.7,0,7c0,0.7-0.4,1.2-1,1.4c-0.6,0.2-1.2,0-1.6-0.5c-0.2-0.3-0.3-0.6-0.3-1
		c0-1.1,0-2.1,0-3.2c0-0.1,0-0.2,0-0.4c-0.1,0.1-0.2,0.2-0.3,0.3c-2.6,2.6-5.2,5.2-7.8,7.8c-0.2,0.2-0.6,0.4-0.9,0.5
		c-0.6,0.2-1.2-0.2-1.5-0.7c-0.3-0.5-0.2-1.2,0.2-1.7c0.3-0.3,0.6-0.7,1-1c2.3-2.3,4.7-4.7,7-7c0.1-0.1,0.2-0.2,0.3-0.2
		C26.8,3.2,26.8,3.2,26.8,3.1z"/>
	<path d="M5.2,3.4c0.1,0.1,0.2,0.1,0.3,0.2c2.6,2.6,5.2,5.2,7.8,7.8c0.4,0.4,0.6,0.9,0.5,1.5c-0.2,1-1.4,1.4-2.2,0.8
		c-0.1-0.1-0.3-0.2-0.4-0.3C8.6,10.8,6,8.2,3.5,5.6C3.4,5.5,3.3,5.4,3.2,5.3c0,0-0.1,0-0.1,0.1c0,0.1,0,0.2,0,0.3c0,1.1,0,2.1,0,3.2
		c0,0.7-0.4,1.2-1,1.4c-0.6,0.2-1.2,0-1.6-0.5C0.4,9.6,0.3,9.3,0.3,9c0-2.4,0-4.7,0-7.1c0-0.9,0.6-1.5,1.5-1.5c2.3,0,4.7,0,7,0
		c0.8,0,1.5,0.6,1.5,1.4c0,0.8-0.6,1.4-1.4,1.5c-0.8,0-1.6,0-2.4,0c-0.4,0-0.8,0-1.2,0C5.2,3.3,5.2,3.3,5.2,3.4z"/>
	<path d="M3.1,26.8c0.2-0.1,0.2-0.2,0.3-0.3c2.6-2.6,5.1-5.1,7.7-7.7c0.3-0.3,0.7-0.5,1.1-0.5c0.6,0,1,0.3,1.3,0.8
		c0.3,0.5,0.2,1-0.2,1.5c-0.1,0.1-0.2,0.2-0.3,0.3c-2.5,2.5-5,5-7.5,7.5c-0.1,0.1-0.3,0.3-0.4,0.4c0,0,0,0.1,0,0.1
		c0.1,0,0.2,0,0.3,0c1.1,0,2.2,0,3.2,0c0.6,0,1.1,0.3,1.3,0.9c0.2,0.5,0.2,1.1-0.2,1.5c-0.3,0.4-0.7,0.5-1.2,0.5c-2.3,0-4.7,0-7,0
		c-0.9,0-1.5-0.6-1.5-1.5c0-0.9,0-1.7,0-2.6c0-1.5,0-2.9,0-4.4c0-1,0.8-1.7,1.7-1.5c0.7,0.1,1.2,0.7,1.2,1.5c0,1.1,0,2.2,0,3.3
		C3.1,26.6,3.1,26.7,3.1,26.8z"/>
</g>
</svg>
