<?xml version="1.0" encoding="utf-8"?>
<!-- Generator: Adobe Illustrator 24.3.0, SVG Export Plug-In . SVG Version: 6.00 Build 0)  -->
<svg version="1.1" id="Layer_1" xmlns="http://www.w3.org/2000/svg" xmlns:xlink="http://www.w3.org/1999/xlink" x="0px" y="0px"
	 viewBox="0 0 200 79.4" style="enable-background:new 0 0 200 79.4;" xml:space="preserve">
<style type="text/css">
	.st0{fill:#FFFFFF;}
</style>
<g>
	<g>
		<rect x="0.2" y="50.1" width="199.5" height="26.7"/>
		<g>
			<path class="st0" d="M26,55.4l-5.5,8.2v5.7h-2.1v-5.7L13,55.4h2.6l3.9,6l3.9-6H26z"/>
			<path class="st0" d="M30.6,69.4c-1.5,0-2.7-0.5-3.8-1.5s-1.5-2.3-1.5-3.7s0.5-2.7,1.5-3.7c1-1,2.3-1.5,3.8-1.5
				c1.5,0,2.7,0.5,3.7,1.5c1,1,1.5,2.3,1.5,3.7s-0.5,2.7-1.5,3.7C33.3,68.9,32.1,69.4,30.6,69.4z M30.6,67.5c0.9,0,1.7-0.3,2.3-1
				c0.6-0.6,0.9-1.4,0.9-2.4c0-0.9-0.3-1.7-0.9-2.4c-0.6-0.6-1.4-1-2.3-1c-0.9,0-1.7,0.3-2.3,1c-0.6,0.6-0.9,1.4-0.9,2.4
				c0,0.9,0.3,1.7,0.9,2.4C28.9,67.1,29.7,67.5,30.6,67.5z"/>
			<path class="st0" d="M45,59h2v10.2h-2v-1.5c-0.3,0.5-0.8,1-1.4,1.3c-0.6,0.3-1.2,0.5-1.9,0.5c-1.1,0-2.1-0.4-2.8-1.3
				c-0.7-0.8-1.1-1.9-1.1-3.3V59h2v5.5c0,1,0.2,1.7,0.7,2.2c0.4,0.5,1,0.8,1.7,0.8c0.8,0,1.4-0.3,1.9-0.9s0.7-1.4,0.7-2.2V59z"/>
			<path class="st0" d="M52.1,60.5c0.7-1.1,1.9-1.7,3.6-1.7v2c-1.2,0-2.1,0.3-2.7,0.8c-0.6,0.6-0.9,1.3-0.9,2.2v5.4h-2V59h2V60.5z"
				/>
			<path class="st0" d="M63.3,55h2v14.2h-2V55z"/>
			<path class="st0" d="M73.2,69.4c-1.5,0-2.7-0.5-3.8-1.5c-1-1-1.5-2.3-1.5-3.7s0.5-2.7,1.5-3.7c1-1,2.3-1.5,3.8-1.5
				c1.5,0,2.7,0.5,3.7,1.5c1,1,1.5,2.3,1.5,3.7S78,66.8,77,67.9C75.9,68.9,74.7,69.4,73.2,69.4z M73.2,67.5c0.9,0,1.7-0.3,2.3-1
				c0.6-0.6,0.9-1.4,0.9-2.4c0-0.9-0.3-1.7-0.9-2.4c-0.6-0.6-1.4-1-2.3-1c-0.9,0-1.7,0.3-2.3,1c-0.6,0.6-0.9,1.4-0.9,2.4
				c0,0.9,0.3,1.7,0.9,2.4C71.5,67.1,72.3,67.5,73.2,67.5z"/>
			<path class="st0" d="M85.3,69.4c-1.5,0-2.7-0.5-3.8-1.5c-1-1-1.5-2.3-1.5-3.7s0.5-2.7,1.5-3.7c1-1,2.3-1.5,3.8-1.5
				c1.5,0,2.7,0.5,3.7,1.5c1,1,1.5,2.3,1.5,3.7S90,66.8,89,67.9C88,68.9,86.7,69.4,85.3,69.4z M85.3,67.5c0.9,0,1.7-0.3,2.3-1
				c0.6-0.6,0.9-1.4,0.9-2.4c0-0.9-0.3-1.7-0.9-2.4c-0.6-0.6-1.4-1-2.3-1c-0.9,0-1.7,0.3-2.3,1c-0.6,0.6-0.9,1.4-0.9,2.4
				c0,0.9,0.3,1.7,0.9,2.4C83.6,67.1,84.4,67.5,85.3,67.5z"/>
			<path class="st0" d="M102,59l-4,4l4,6.1h-2.4l-3.1-4.7l-1.6,1.6v3h-2V55h2v8.7l4.4-4.6H102z"/>
			<path class="st0" d="M104.1,66.6h2.2l-2.2,5.4h-1.5L104.1,66.6z"/>
			<path class="st0" d="M118.9,69.4c-1.5,0-2.7-0.5-3.8-1.5c-1-1-1.5-2.3-1.5-3.7s0.5-2.7,1.5-3.7c1-1,2.3-1.5,3.8-1.5
				c1.5,0,2.7,0.5,3.7,1.5c1,1,1.5,2.3,1.5,3.7s-0.5,2.7-1.5,3.7C121.6,68.9,120.3,69.4,118.9,69.4z M118.9,67.5
				c0.9,0,1.7-0.3,2.3-1c0.6-0.6,0.9-1.4,0.9-2.4c0-0.9-0.3-1.7-0.9-2.4c-0.6-0.6-1.4-1-2.3-1c-0.9,0-1.7,0.3-2.3,1
				c-0.6,0.6-0.9,1.4-0.9,2.4c0,0.9,0.3,1.7,0.9,2.4C117.2,67.1,118,67.5,118.9,67.5z"/>
			<path class="st0" d="M133.3,59h2v10.2h-2v-1.5c-0.3,0.5-0.8,1-1.4,1.3c-0.6,0.3-1.2,0.5-1.9,0.5c-1.1,0-2.1-0.4-2.8-1.3
				c-0.7-0.8-1.1-1.9-1.1-3.3V59h2v5.5c0,1,0.2,1.7,0.7,2.2c0.4,0.5,1,0.8,1.7,0.8c0.8,0,1.4-0.3,1.9-0.9c0.5-0.6,0.7-1.4,0.7-2.2
				V59z"/>
			<path class="st0" d="M140.4,60.5c0.7-1.1,1.9-1.7,3.6-1.7v2c-1.2,0-2.1,0.3-2.7,0.8s-0.9,1.3-0.9,2.2v5.4h-2V59h2V60.5z"/>
			<path class="st0" d="M151.5,55h2v14.2h-2V55z"/>
			<path class="st0" d="M165.8,63.2c0.1,0.6,0.1,1.2,0,1.8h-7.4c0.1,0.8,0.4,1.4,0.9,1.8c0.5,0.4,1.1,0.6,1.8,0.6
				c0.6,0,1.1-0.1,1.7-0.4c0.5-0.3,0.9-0.6,1.1-1.1l1.7,1c-0.4,0.7-1.1,1.3-1.9,1.8c-0.8,0.4-1.7,0.7-2.6,0.7
				c-1.5,0-2.6-0.5-3.5-1.5c-0.9-1-1.4-2.3-1.4-3.8s0.5-2.7,1.4-3.8c0.9-1,2.1-1.5,3.5-1.5c1.2,0,2.2,0.4,3.1,1.1
				C165.1,60.7,165.6,61.8,165.8,63.2z M161,60.8c-0.8,0-1.4,0.2-1.8,0.7c-0.5,0.4-0.8,1-0.9,1.8h5.4c0-0.8-0.3-1.4-0.8-1.8
				C162.4,61,161.8,60.8,161,60.8z"/>
			<path class="st0" d="M173.4,58.8c1.1,0,2.1,0.4,2.8,1.3c0.7,0.8,1.1,1.9,1.1,3.3v5.9h-2v-5.5c0-1-0.2-1.7-0.7-2.2
				c-0.4-0.5-1-0.8-1.7-0.8c-0.8,0-1.4,0.3-1.9,0.9c-0.5,0.6-0.7,1.4-0.7,2.2v5.4h-2V59h2v1.5c0.3-0.5,0.8-1,1.4-1.3
				C172.1,59,172.7,58.8,173.4,58.8z"/>
			<path class="st0" d="M187,66.3c0,0.9-0.4,1.7-1.1,2.3c-0.7,0.6-1.7,0.9-2.8,0.9c-1.1,0-1.9-0.3-2.6-0.8s-1.1-1.2-1.3-2l1.8-0.5
				c0.1,0.4,0.4,0.8,0.7,1.1c0.4,0.3,0.8,0.4,1.4,0.4c0.5,0,1-0.1,1.3-0.3c0.4-0.2,0.6-0.5,0.6-0.9c0-0.2-0.1-0.5-0.3-0.6
				c-0.2-0.2-0.4-0.3-0.7-0.4c-0.2-0.1-0.6-0.2-1.1-0.4c-0.5-0.1-0.8-0.3-1.2-0.4c-0.3-0.1-0.6-0.3-1-0.5c-0.4-0.2-0.6-0.5-0.8-0.9
				c-0.2-0.4-0.3-0.8-0.3-1.3c0-0.9,0.3-1.7,1-2.3c0.7-0.6,1.6-0.9,2.6-0.9c1,0,1.8,0.3,2.5,0.8c0.7,0.5,1.1,1.2,1.2,2l-1.8,0.5
				c-0.1-0.5-0.3-0.8-0.7-1.1c-0.3-0.3-0.8-0.4-1.2-0.4c-0.5,0-0.9,0.1-1.2,0.3c-0.3,0.2-0.5,0.5-0.5,0.8c0,0.3,0.2,0.6,0.5,0.8
				c0.3,0.2,0.8,0.4,1.4,0.5c1.2,0.4,2,0.7,2.5,1C186.6,64.7,187,65.4,187,66.3z"/>
		</g>
	</g>
	<g>
		<path d="M94.4,40.4l-3.1-7.6H75.8l-3,7.6h-8.7l15.4-37h8l15.6,37H94.4z M78.7,25.9h9.7L83.5,14L78.7,25.9z"/>
		<path d="M111.2,3.4h8.2v37h-8.2V3.4z"/>
		<g>
			<path d="M46.7,30.7L38.2,2.5h-8.6L21,30.7L13,2.5H5l11.6,38.8h8.7l8.6-28.4l8.6,28.4h8.7L62.7,2.5h-8L46.7,30.7z M60.3,4.3
				L49.8,39.5h-6L33.9,6.7L24,39.5h-6L7.5,4.3h4.2l9.2,32.8l10-32.8h5.9l10,32.8l9.2-32.8H60.3z"/>
			<path d="M154.3,21.6c1.6-2.1,2.4-4.5,2.4-7.2c0-3.4-1.3-6.3-3.8-8.5c-2.5-2.2-5.6-3.4-9.3-3.4h-16.9v38.8h7.5V26.4h6.5l8.6,14.9
				h8.7l-9.1-15.8C151,24.7,152.9,23.4,154.3,21.6z M154.8,39.5h-4.5l-8.6-14.9h-9.3v14.9h-3.9V4.3h15.1c3.2,0,6,1,8.1,2.9
				c2.2,1.9,3.2,4.3,3.2,7.2c0,2.3-0.7,4.3-2.1,6.1c-1.4,1.8-3.3,3-5.6,3.6l-1.1,0.3L154.8,39.5z"/>
			<path d="M151,14.5c0-1.9-0.7-3.5-2.1-4.7c-1.4-1.2-3.2-1.8-5.3-1.8h-11.2v13h11.2c2.2,0,4-0.6,5.4-1.8
				C150.3,17.9,151,16.3,151,14.5z M143.6,19.1h-9.4V9.8h9.4c1.7,0,3.1,0.4,4.1,1.4c1,0.9,1.5,2,1.5,3.3c0,1.3-0.5,2.4-1.5,3.3
				C146.7,18.7,145.3,19.1,143.6,19.1z"/>
			<path d="M174.3,34.1l19.3-25.6l0.2-0.2V2.5h-30.2v7.3h19.6l-19.6,25.8v5.7H195v-7.3H174.3z M193.1,39.5h-27.7v-3.3L186.9,8h-21.4
				V4.3H192v3.3l-21.3,28.2h22.5V39.5z"/>
		</g>
	</g>
</g>
</svg>
